<svg width="800" height="600" viewBox="0 0 800 600" fill="none" xmlns="http://www.w3.org/2000/svg">
  <path d="M400 300C400 355.228 355.228 400 300 400C244.772 400 200 355.228 200 300C200 244.772 244.772 200 300 200C355.228 200 400 244.772 400 300Z" fill="#F3F4F6"/>
  <path d="M600 300C600 355.228 555.228 400 500 400C444.772 400 400 355.228 400 300C400 244.772 444.772 200 500 200C555.228 200 600 244.772 600 300Z" fill="#E5E7EB"/>
  <path d="M500 400C555.228 400 600 444.772 600 500C600 555.228 555.228 600 500 600C444.772 600 400 555.228 400 500C400 444.772 444.772 400 500 400Z" fill="#D1D5DB"/>
  <rect x="200" y="0" width="400" height="200" rx="20" fill="#9CA3AF"/>
</svg>